<svg xmlns="http://www.w3.org/2000/svg"
     viewBox="0 0 320 80"
     width="320" height="80">

  <rect width="320" height="80" fill="white"/>

  <!-- Ramsey fringe curve -->
  <path d="M 0.00,14.00 L 0.53,14.21 L 1.07,14.56 L 1.60,15.06 L 2.13,15.70 L 2.67,16.46 L 3.20,17.36 L 3.73,18.38 L 4.27,19.51 L 4.80,20.75 L 5.33,22.10 L 5.87,23.53 L 6.40,25.05 L 6.93,26.64 L 7.47,28.30 L 8.00,30.02 L 8.53,31.79 L 9.07,33.59 L 9.60,35.42 L 10.13,37.26 L 10.67,39.11 L 11.20,40.96 L 11.73,42.80 L 12.27,44.62 L 12.80,46.40 L 13.33,48.15 L 13.87,49.84 L 14.40,51.48 L 14.93,53.05 L 15.47,54.55 L 16.00,55.96 L 16.53,57.29 L 17.07,58.52 L 17.60,59.66 L 18.13,60.69 L 18.67,61.61 L 19.20,62.42 L 19.73,63.11 L 20.27,63.68 L 20.80,64.14 L 21.33,64.47 L 21.87,64.68 L 22.40,64.76 L 22.93,64.73 L 23.47,64.57 L 24.00,64.30 L 24.53,63.91 L 25.07,63.41 L 25.60,62.80 L 26.13,62.09 L 26.67,61.27 L 27.20,60.37 L 27.73,59.37 L 28.27,58.29 L 28.80,57.13 L 29.33,55.91 L 29.87,54.62 L 30.40,53.28 L 30.93,51.89 L 31.47,50.47 L 32.00,49.01 L 32.53,47.53 L 33.07,46.03 L 33.60,44.53 L 34.13,43.03 L 34.67,41.53 L 35.20,40.06 L 35.73,38.61 L 36.27,37.19 L 36.80,35.81 L 37.33,34.47 L 37.87,33.19 L 38.40,31.97 L 38.93,30.81 L 39.47,29.73 L 40.00,28.71 L 40.53,27.78 L 41.07,26.94 L 41.60,26.18 L 42.13,25.51 L 42.67,24.94 L 43.20,24.46 L 43.73,24.08 L 44.27,23.80 L 44.80,23.62 L 45.33,23.53 L 45.87,23.55 L 46.40,23.66 L 46.93,23.87 L 47.47,24.18 L 48.00,24.57 L 48.53,25.06 L 49.07,25.63 L 49.60,26.28 L 50.13,27.00 L 50.67,27.80 L 51.20,28.67 L 51.73,29.60 L 52.27,30.59 L 52.80,31.63 L 53.33,32.71 L 53.87,33.83 L 54.40,34.98 L 54.93,36.16 L 55.47,37.36 L 56.00,38.58 L 56.53,39.80 L 57.07,41.01 L 57.60,42.23 L 58.13,43.43 L 58.67,44.61 L 59.20,45.76 L 59.73,46.89 L 60.27,47.97 L 60.80,49.02 L 61.33,50.02 L 61.87,50.96 L 62.40,51.85 L 62.93,52.68 L 63.47,53.44 L 64.00,54.14 L 64.53,54.76 L 65.07,55.31 L 65.60,55.79 L 66.13,56.19 L 66.67,56.50 L 67.20,56.74 L 67.73,56.90 L 68.27,56.98 L 68.80,56.97 L 69.33,56.89 L 69.87,56.73 L 70.40,56.50 L 70.93,56.18 L 71.47,55.80 L 72.00,55.35 L 72.53,54.83 L 73.07,54.24 L 73.60,53.60 L 74.13,52.90 L 74.67,52.16 L 75.20,51.36 L 75.73,50.52 L 76.27,49.65 L 76.80,48.74 L 77.33,47.81 L 77.87,46.86 L 78.40,45.88 L 78.93,44.90 L 79.47,43.91 L 80.00,42.92 L 80.53,41.94 L 81.07,40.96 L 81.60,40.00 L 82.13,39.06 L 82.67,38.15 L 83.20,37.26 L 83.73,36.41 L 84.27,35.60 L 84.80,34.82 L 85.33,34.10 L 85.87,33.42 L 86.40,32.79 L 86.93,32.22 L 87.47,31.70 L 88.00,31.25 L 88.53,30.86 L 89.07,30.53 L 89.60,30.26 L 90.13,30.06 L 90.67,29.92 L 91.20,29.85 L 91.73,29.85 L 92.27,29.91 L 92.80,30.03 L 93.33,30.21 L 93.87,30.46 L 94.40,30.76 L 94.93,31.12 L 95.47,31.54 L 96.00,32.00 L 96.53,32.52 L 97.07,33.08 L 97.60,33.68 L 98.13,34.32 L 98.67,35.00 L 99.20,35.70 L 99.73,36.44 L 100.27,37.19 L 100.80,37.96 L 101.33,38.75 L 101.87,39.55 L 102.40,40.35 L 102.93,41.15 L 103.47,41.95 L 104.00,42.74 L 104.53,43.52 L 105.07,44.29 L 105.60,45.03 L 106.13,45.76 L 106.67,46.45 L 107.20,47.12 L 107.73,47.75 L 108.27,48.34 L 108.80,48.90 L 109.33,49.41 L 109.87,49.88 L 110.40,50.30 L 110.93,50.68 L 111.47,51.00 L 112.00,51.28 L 112.53,51.50 L 113.07,51.67 L 113.60,51.79 L 114.13,51.85 L 114.67,51.86 L 115.20,51.82 L 115.73,51.73 L 116.27,51.58 L 116.80,51.39 L 117.33,51.15 L 117.87,50.86 L 118.40,50.53 L 118.93,50.16 L 119.47,49.75 L 120.00,49.30 L 120.53,48.81 L 121.07,48.30 L 121.60,47.75 L 122.13,47.18 L 122.67,46.59 L 123.20,45.98 L 123.73,45.35 L 124.27,44.72 L 124.80,44.07 L 125.33,43.42 L 125.87,42.77 L 126.40,42.12 L 126.93,41.48 L 127.47,40.84 L 128.00,40.22 L 128.53,39.61 L 129.07,39.03 L 129.60,38.46 L 130.13,37.92 L 130.67,37.40 L 131.20,36.91 L 131.73,36.46 L 132.27,36.04 L 132.80,35.65 L 133.33,35.30 L 133.87,35.00 L 134.40,34.73 L 134.93,34.50 L 135.47,34.31 L 136.00,34.17 L 136.53,34.07 L 137.07,34.01 L 137.60,34.00 L 138.13,34.03 L 138.67,34.10 L 139.20,34.21 L 139.73,34.36 L 140.27,34.55 L 140.80,34.78 L 141.33,35.04 L 141.87,35.34 L 142.40,35.67 L 142.93,36.03 L 143.47,36.42 L 144.00,36.84 L 144.53,37.28 L 145.07,37.74 L 145.60,38.22 L 146.13,38.71 L 146.67,39.21 L 147.20,39.73 L 147.73,40.25 L 148.27,40.78 L 148.80,41.31 L 149.33,41.84 L 149.87,42.36 L 150.40,42.87 L 150.93,43.38 L 151.47,43.88 L 152.00,44.35 L 152.53,44.82 L 153.07,45.26 L 153.60,45.68 L 154.13,46.08 L 154.67,46.45 L 155.20,46.80 L 155.73,47.11 L 156.27,47.40 L 156.80,47.65 L 157.33,47.88 L 157.87,48.06 L 158.40,48.22 L 158.93,48.34 L 159.47,48.43 L 160.00,48.48 L 160.53,48.49 L 161.07,48.47 L 161.60,48.42 L 162.13,48.34 L 162.67,48.22 L 163.20,48.07 L 163.73,47.88 L 164.27,47.67 L 164.80,47.43 L 165.33,47.17 L 165.87,46.88 L 166.40,46.57 L 166.93,46.23 L 167.47,45.88 L 168.00,45.51 L 168.53,45.12 L 169.07,44.72 L 169.60,44.31 L 170.13,43.89 L 170.67,43.47 L 171.20,43.04 L 171.73,42.61 L 172.27,42.19 L 172.80,41.76 L 173.33,41.34 L 173.87,40.93 L 174.40,40.53 L 174.93,40.14 L 175.47,39.76 L 176.00,39.40 L 176.53,39.06 L 177.07,38.73 L 177.60,38.43 L 178.13,38.14 L 178.67,37.88 L 179.20,37.65 L 179.73,37.44 L 180.27,37.25 L 180.80,37.10 L 181.33,36.97 L 181.87,36.87 L 182.40,36.79 L 182.93,36.75 L 183.47,36.73 L 184.00,36.74 L 184.53,36.78 L 185.07,36.85 L 185.60,36.94 L 186.13,37.06 L 186.67,37.21 L 187.20,37.37 L 187.73,37.57 L 188.27,37.78 L 188.80,38.01 L 189.33,38.26 L 189.87,38.53 L 190.40,38.82 L 190.93,39.12 L 191.47,39.43 L 192.00,39.75 L 192.53,40.08 L 193.07,40.42 L 193.60,40.76 L 194.13,41.11 L 194.67,41.46 L 195.20,41.81 L 195.73,42.15 L 196.27,42.49 L 196.80,42.83 L 197.33,43.15 L 197.87,43.47 L 198.40,43.78 L 198.93,44.07 L 199.47,44.36 L 200.00,44.62 L 200.53,44.87 L 201.07,45.10 L 201.60,45.32 L 202.13,45.51 L 202.67,45.68 L 203.20,45.83 L 203.73,45.96 L 204.27,46.07 L 204.80,46.16 L 205.33,46.22 L 205.87,46.26 L 206.40,46.27 L 206.93,46.27 L 207.47,46.24 L 208.00,46.19 L 208.53,46.11 L 209.07,46.02 L 209.60,45.91 L 210.13,45.77 L 210.67,45.62 L 211.20,45.45 L 211.73,45.26 L 212.27,45.06 L 212.80,44.84 L 213.33,44.61 L 213.87,44.37 L 214.40,44.12 L 214.93,43.86 L 215.47,43.59 L 216.00,43.32 L 216.53,43.04 L 217.07,42.76 L 217.60,42.47 L 218.13,42.19 L 218.67,41.91 L 219.20,41.64 L 219.73,41.36 L 220.27,41.10 L 220.80,40.84 L 221.33,40.59 L 221.87,40.35 L 222.40,40.12 L 222.93,39.90 L 223.47,39.70 L 224.00,39.51 L 224.53,39.33 L 225.07,39.17 L 225.60,39.03 L 226.13,38.90 L 226.67,38.80 L 227.20,38.71 L 227.73,38.64 L 228.27,38.58 L 228.80,38.55 L 229.33,38.53 L 229.87,38.54 L 230.40,38.56 L 230.93,38.60 L 231.47,38.65 L 232.00,38.73 L 232.53,38.82 L 233.07,38.93 L 233.60,39.05 L 234.13,39.18 L 234.67,39.33 L 235.20,39.50 L 235.73,39.67 L 236.27,39.86 L 236.80,40.05 L 237.33,40.26 L 237.87,40.47 L 238.40,40.68 L 238.93,40.90 L 239.47,41.13 L 240.00,41.36 L 240.53,41.59 L 241.07,41.81 L 241.60,42.04 L 242.13,42.27 L 242.67,42.49 L 243.20,42.71 L 243.73,42.92 L 244.27,43.12 L 244.80,43.32 L 245.33,43.50 L 245.87,43.68 L 246.40,43.85 L 246.93,44.00 L 247.47,44.15 L 248.00,44.28 L 248.53,44.40 L 249.07,44.50 L 249.60,44.59 L 250.13,44.66 L 250.67,44.72 L 251.20,44.77 L 251.73,44.80 L 252.27,44.81 L 252.80,44.81 L 253.33,44.80 L 253.87,44.77 L 254.40,44.72 L 254.93,44.66 L 255.47,44.59 L 256.00,44.51 L 256.53,44.41 L 257.07,44.30 L 257.60,44.18 L 258.13,44.05 L 258.67,43.91 L 259.20,43.76 L 259.73,43.60 L 260.27,43.44 L 260.80,43.27 L 261.33,43.09 L 261.87,42.91 L 262.40,42.73 L 262.93,42.54 L 263.47,42.36 L 264.00,42.17 L 264.53,41.99 L 265.07,41.81 L 265.60,41.63 L 266.13,41.45 L 266.67,41.28 L 267.20,41.11 L 267.73,40.95 L 268.27,40.80 L 268.80,40.65 L 269.33,40.52 L 269.87,40.39 L 270.40,40.27 L 270.93,40.16 L 271.47,40.07 L 272.00,39.98 L 272.53,39.91 L 273.07,39.85 L 273.60,39.80 L 274.13,39.76 L 274.67,39.73 L 275.20,39.72 L 275.73,39.72 L 276.27,39.73 L 276.80,39.75 L 277.33,39.79 L 277.87,39.83 L 278.40,39.89 L 278.93,39.96 L 279.47,40.04 L 280.00,40.12 L 280.53,40.22 L 281.07,40.33 L 281.60,40.44 L 282.13,40.56 L 282.67,40.69 L 283.20,40.82 L 283.73,40.96 L 284.27,41.10 L 284.80,41.24 L 285.33,41.39 L 285.87,41.54 L 286.40,41.69 L 286.93,41.84 L 287.47,41.99 L 288.00,42.14 L 288.53,42.29 L 289.07,42.43 L 289.60,42.57 L 290.13,42.71 L 290.67,42.84 L 291.20,42.96 L 291.73,43.08 L 292.27,43.19 L 292.80,43.29 L 293.33,43.39 L 293.87,43.48 L 294.40,43.56 L 294.93,43.63 L 295.47,43.69 L 296.00,43.74 L 296.53,43.78 L 297.07,43.82 L 297.60,43.84 L 298.13,43.85 L 298.67,43.85 L 299.20,43.84 L 299.73,43.83 L 300.27,43.80 L 300.80,43.76 L 301.33,43.72 L 301.87,43.66 L 302.40,43.60 L 302.93,43.53 L 303.47,43.45 L 304.00,43.37 L 304.53,43.28 L 305.07,43.18 L 305.60,43.08 L 306.13,42.97 L 306.67,42.86 L 307.20,42.75 L 307.73,42.63 L 308.27,42.51 L 308.80,42.39 L 309.33,42.27 L 309.87,42.14 L 310.40,42.02 L 310.93,41.90 L 311.47,41.78 L 312.00,41.67 L 312.53,41.55 L 313.07,41.44 L 313.60,41.34 L 314.13,41.23 L 314.67,41.14 L 315.20,41.05 L 315.73,40.96 L 316.27,40.88 L 316.80,40.81 L 317.33,40.74 L 317.87,40.68 L 318.40,40.63 L 318.93,40.59 L 319.47,40.56 L 320.00,40.53"
        fill="none"
        stroke="#3A7FD5"
        stroke-width="2.8"
        stroke-linecap="round"
        stroke-linejoin="round"/>




</svg>
